<svg width="40" height="53" viewBox="0 0 40 53" fill="none" xmlns="http://www.w3.org/2000/svg">
    <mask id="path-1-inside-1_463_7768" fill="white">
        <path d="M40 33C40 27.6957 37.8929 22.6086 34.1421 18.8579C30.3914 15.1071 25.3043 13 20 13C14.6957 13 9.60859 15.1071 5.85787 18.8579C2.10714 22.6086 8.00932e-07 27.6957 0 33L20 33H40Z"/>
    </mask>
    <path d="M40 33C40 27.6957 37.8929 22.6086 34.1421 18.8579C30.3914 15.1071 25.3043 13 20 13C14.6957 13 9.60859 15.1071 5.85787 18.8579C2.10714 22.6086 8.00932e-07 27.6957 0 33L20 33H40Z" fill="#FF6B57" stroke="#3C3C3C" stroke-width="4" mask="url(#path-1-inside-1_463_7768)"/>
    <mask id="path-2-inside-2_463_7768" fill="white">
        <path d="M40 33C40 38.3043 37.8929 43.3914 34.1421 47.1421C30.3914 50.8929 25.3043 53 20 53C14.6957 53 9.60859 50.8929 5.85787 47.1421C2.10714 43.3914 8.00932e-07 38.3043 0 33L20 33H40Z"/>
    </mask>
    <path d="M40 33C40 38.3043 37.8929 43.3914 34.1421 47.1421C30.3914 50.8929 25.3043 53 20 53C14.6957 53 9.60859 50.8929 5.85787 47.1421C2.10714 43.3914 8.00932e-07 38.3043 0 33L20 33H40Z" fill="white" stroke="#3C3C3C" stroke-width="4" mask="url(#path-2-inside-2_463_7768)"/>
    <circle cx="20" cy="33" r="5.0625" fill="white" stroke="#3C3C3C" stroke-width="1.875"/>
    <path d="M25.7683 5.47045C25.6433 5.24715 25.4283 5.08851 25.1847 5.03984C24.9411 4.99116 24.6957 5.0578 24.5185 5.22072L15.1403 13.8434C14.9182 14.0476 14.8377 14.3707 14.9333 14.6751C15.0288 14.9794 15.2834 15.2115 15.5888 15.2725L31.5806 18.4679C31.886 18.529 32.1883 18.4082 32.359 18.157C32.5297 17.9058 32.5385 17.5684 32.3819 17.2885L25.7683 5.47045Z" fill="white" stroke="#3C3C3C" stroke-width="1.62471" stroke-linejoin="round"/>
    <path fill-rule="evenodd" clip-rule="evenodd" d="M29.816 14.3151L28.8856 12.6524L18.1416 12.2204L16.448 13.7776L29.816 14.3151ZM27.0242 9.32637L27.9547 10.9891L19.8358 10.6626L21.5295 9.10541L27.0242 9.32637ZM26.0934 7.66306L25.0759 5.84474L23.2237 7.54765L26.0934 7.66306ZM30.7469 15.9785L21.3736 15.6015L31.6894 17.6628L30.7469 15.9785Z" fill="#5CDF46"/>
    <circle cx="26" cy="4" r="3" fill="#5CDF46" stroke="#3C3C3C" stroke-width="2"/>
</svg>
