<svg width="40" height="40" viewBox="0 0 40 40" fill="none" xmlns="http://www.w3.org/2000/svg">
<mask id="path-1-inside-1_444_35815" fill="white">
<path d="M40 20C40 14.6957 37.8929 9.60859 34.1421 5.85786C30.3914 2.10714 25.3043 4.00466e-07 20 0C14.6957 -4.00466e-07 9.60859 2.10714 5.85787 5.85786C2.10714 9.60859 8.00932e-07 14.6957 0 20L20 20H40Z"/>
</mask>
<path d="M40 20C40 14.6957 37.8929 9.60859 34.1421 5.85786C30.3914 2.10714 25.3043 4.00466e-07 20 0C14.6957 -4.00466e-07 9.60859 2.10714 5.85787 5.85786C2.10714 9.60859 8.00932e-07 14.6957 0 20L20 20H40Z" fill="#F0BD0A" stroke="#3C3C3C" stroke-width="4" mask="url(#path-1-inside-1_444_35815)"/>
<mask id="path-2-inside-2_444_35815" fill="white">
<path d="M40 20C40 25.3043 37.8929 30.3914 34.1421 34.1421C30.3914 37.8929 25.3043 40 20 40C14.6957 40 9.60859 37.8929 5.85787 34.1421C2.10714 30.3914 8.00932e-07 25.3043 0 20L20 20H40Z"/>
</mask>
<path d="M40 20C40 25.3043 37.8929 30.3914 34.1421 34.1421C30.3914 37.8929 25.3043 40 20 40C14.6957 40 9.60859 37.8929 5.85787 34.1421C2.10714 30.3914 8.00932e-07 25.3043 0 20L20 20H40Z" fill="white" stroke="#3C3C3C" stroke-width="4" mask="url(#path-2-inside-2_444_35815)"/>
<circle cx="33.5" cy="10.5" r="2.5" fill="white"/>
<circle cx="29.5" cy="17.5" r="2.5" fill="white"/>
<circle cx="32.5" cy="24.5" r="2.5" fill="#F0BD0A"/>
<circle cx="26" cy="4" r="2" fill="white"/>
<circle cx="15.5" cy="26.5" r="2.5" fill="#F0BD0A"/>
<circle cx="6.5" cy="24.5" r="1.5" fill="#F0BD0A"/>
<circle cx="7" cy="9" r="2" fill="white"/>
<circle cx="9" cy="16" r="3" fill="white"/>
<circle cx="18" cy="34" r="2" fill="#F0BD0A"/>
<mask id="path-12-inside-3_444_35815" fill="white">
<path d="M40 20C40 14.6957 37.8929 9.60859 34.1421 5.85786C30.3914 2.10714 25.3043 4.00466e-07 20 0C14.6957 -4.00466e-07 9.60859 2.10714 5.85787 5.85786C2.10714 9.60859 8.00932e-07 14.6957 0 20L20 20H40Z"/>
</mask>
<path d="M40 20C40 14.6957 37.8929 9.60859 34.1421 5.85786C30.3914 2.10714 25.3043 4.00466e-07 20 0C14.6957 -4.00466e-07 9.60859 2.10714 5.85787 5.85786C2.10714 9.60859 8.00932e-07 14.6957 0 20L20 20H40Z" stroke="#3C3C3C" stroke-width="4" mask="url(#path-12-inside-3_444_35815)"/>
<path d="M16 4C16 4 16.6815 5.70599 17.4878 6.51225C18.294 7.31851 20 8 20 8C20 8 18.294 8.68149 17.4878 9.48775C16.6815 10.294 16 12 16 12C16 12 15.3185 10.294 14.5122 9.48775C13.706 8.68149 12 8 12 8C12 8 13.706 7.31851 14.5122 6.51225C15.3185 5.70599 16 4 16 4Z" fill="white"/>
<path d="M25 9C25 9 25.3407 9.85299 25.7439 10.2561C26.147 10.6593 27 11 27 11C27 11 26.147 11.3407 25.7439 11.7439C25.3407 12.147 25 13 25 13C25 13 24.6593 12.147 24.2561 11.7439C23.853 11.3407 23 11 23 11C23 11 23.853 10.6593 24.2561 10.2561C24.6593 9.85299 25 9 25 9Z" fill="white"/>
<path d="M11 29C11 29 11.3407 29.853 11.7439 30.2561C12.147 30.6593 13 31 13 31C13 31 12.147 31.3407 11.7439 31.7439C11.3407 32.147 11 33 11 33C11 33 10.6593 32.147 10.2561 31.7439C9.85299 31.3407 9 31 9 31C9 31 9.85299 30.6593 10.2561 30.2561C10.6593 29.853 11 29 11 29Z" fill="#F0BD0A"/>
<path d="M27 27C27 27 27.6815 28.706 28.4878 29.5122C29.294 30.3185 31 31 31 31C31 31 29.294 31.6815 28.4878 32.4878C27.6815 33.294 27 35 27 35C27 35 26.3185 33.294 25.5122 32.4878C24.706 31.6815 23 31 23 31C23 31 24.706 30.3185 25.5122 29.5122C26.3185 28.706 27 27 27 27Z" fill="#F0BD0A"/>
<circle cx="20" cy="20" r="5.0625" fill="white" stroke="#3C3C3C" stroke-width="1.875"/>
</svg>
