<svg width="40" height="40" viewBox="0 0 40 40" fill="none" xmlns="http://www.w3.org/2000/svg">
    <mask id="path-1-inside-1_463_7786" fill="white">
        <path d="M40 20C40 14.6957 37.8929 9.60859 34.1421 5.85786C30.3914 2.10714 25.3043 4.00466e-07 20 0C14.6957 -4.00466e-07 9.60859 2.10714 5.85787 5.85786C2.10714 9.60859 8.00932e-07 14.6957 0 20L20 20H40Z"/>
    </mask>
    <path d="M40 20C40 14.6957 37.8929 9.60859 34.1421 5.85786C30.3914 2.10714 25.3043 4.00466e-07 20 0C14.6957 -4.00466e-07 9.60859 2.10714 5.85787 5.85786C2.10714 9.60859 8.00932e-07 14.6957 0 20L20 20H40Z" fill="#E75A8F" stroke="#3C3C3C" stroke-width="4" mask="url(#path-1-inside-1_463_7786)"/>
    <mask id="path-2-inside-2_463_7786" fill="white">
        <path d="M40 20C40 25.3043 37.8929 30.3914 34.1421 34.1421C30.3914 37.8929 25.3043 40 20 40C14.6957 40 9.60859 37.8929 5.85787 34.1421C2.10714 30.3914 8.00932e-07 25.3043 0 20L20 20H40Z"/>
    </mask>
    <path d="M40 20C40 25.3043 37.8929 30.3914 34.1421 34.1421C30.3914 37.8929 25.3043 40 20 40C14.6957 40 9.60859 37.8929 5.85787 34.1421C2.10714 30.3914 8.00932e-07 25.3043 0 20L20 20H40Z" fill="white" stroke="#3C3C3C" stroke-width="4" mask="url(#path-2-inside-2_463_7786)"/>
    <path d="M18 1C25 7.5 29.5 9.5 37.5 12.5M12 2.5C20 11 27.5 14 38.5 18M7.5 5.5C14.4468 13.2912 25 18 31 19.5M4 9.5C5.96935 12.8034 15.5265 18.5526 21.5 21M1.5 14.5C4.5 17.5 8 20 13.5 20.5" stroke="#3C3C3C" stroke-width="2"/>
    <circle cx="20" cy="20" r="5.0625" fill="white" stroke="#3C3C3C" stroke-width="1.875"/>
</svg>
