<svg xmlns="http://www.w3.org/2000/svg" width="40" height="40" viewBox="0 0 40 40" fill="none">
    <mask id="path-1-inside-1_463_7759" fill="white">
        <path d="M40 20C40 14.6957 37.8929 9.60859 34.1421 5.85786C30.3914 2.10714 25.3043 4.00466e-07 20 0C14.6957 -4.00466e-07 9.60859 2.10714 5.85787 5.85786C2.10714 9.60859 8.00932e-07 14.6957 0 20L20 20H40Z"/>
    </mask>
    <path d="M40 20C40 14.6957 37.8929 9.60859 34.1421 5.85786C30.3914 2.10714 25.3043 4.00466e-07 20 0C14.6957 -4.00466e-07 9.60859 2.10714 5.85787 5.85786C2.10714 9.60859 8.00932e-07 14.6957 0 20L20 20H40Z" fill="#FF6B57" stroke="#3C3C3C" stroke-width="4" mask="url(#path-1-inside-1_463_7759)"/>
    <mask id="path-2-inside-2_463_7759" fill="white">
        <path d="M40 20C40 25.3043 37.8929 30.3914 34.1421 34.1421C30.3914 37.8929 25.3043 40 20 40C14.6957 40 9.60859 37.8929 5.85787 34.1421C2.10714 30.3914 8.00932e-07 25.3043 0 20L20 20H40Z"/>
    </mask>
    <path d="M40 20C40 25.3043 37.8929 30.3914 34.1421 34.1421C30.3914 37.8929 25.3043 40 20 40C14.6957 40 9.60859 37.8929 5.85787 34.1421C2.10714 30.3914 8.00932e-07 25.3043 0 20L20 20H40Z" fill="white" stroke="#3C3C3C" stroke-width="4" mask="url(#path-2-inside-2_463_7759)"/>
    <circle cx="20" cy="20" r="5" fill="white" stroke="#3C3C3C" stroke-width="2"/>
</svg>
