<svg width="40" height="40" viewBox="0 0 40 40" fill="none" xmlns="http://www.w3.org/2000/svg">
    <mask id="path-1-inside-1_463_7763" fill="white">
        <path d="M40 20C40 14.6957 37.8929 9.60859 34.1421 5.85786C30.3914 2.10714 25.3043 4.00466e-07 20 0C14.6957 -4.00466e-07 9.60859 2.10714 5.85787 5.85786C2.10714 9.60859 8.00932e-07 14.6957 0 20L20 20H40Z"/>
    </mask>
    <path d="M40 20C40 14.6957 37.8929 9.60859 34.1421 5.85786C30.3914 2.10714 25.3043 4.00466e-07 20 0C14.6957 -4.00466e-07 9.60859 2.10714 5.85787 5.85786C2.10714 9.60859 8.00932e-07 14.6957 0 20L20 20H40Z" fill="#FF6B57" stroke="#3C3C3C" stroke-width="4" mask="url(#path-1-inside-1_463_7763)"/>
    <mask id="path-2-inside-2_463_7763" fill="white">
        <path d="M40 20C40 25.3043 37.8929 30.3914 34.1421 34.1421C30.3914 37.8929 25.3043 40 20 40C14.6957 40 9.60859 37.8929 5.85787 34.1421C2.10714 30.3914 8.00932e-07 25.3043 0 20L20 20H40Z"/>
    </mask>
    <path d="M40 20C40 25.3043 37.8929 30.3914 34.1421 34.1421C30.3914 37.8929 25.3043 40 20 40C14.6957 40 9.60859 37.8929 5.85787 34.1421C2.10714 30.3914 8.00932e-07 25.3043 0 20L20 20H40Z" fill="white" stroke="#3C3C3C" stroke-width="4" mask="url(#path-2-inside-2_463_7763)"/>
    <circle cx="20" cy="20" r="5.0625" fill="white" stroke="#3C3C3C" stroke-width="1.875"/>
    <path d="M20 27L21.591 30.409L25 32L21.591 33.591L20 37L18.409 33.591L15 32L18.409 30.409L20 27Z" fill="#F0BD0A"/>
    <path d="M10 24L11.2728 26.7272L14 28L11.2728 29.2728L10 32L8.72721 29.2728L6 28L8.72721 26.7272L10 24Z" fill="#F0BD0A"/>
    <path d="M30 24L31.2728 26.7272L34 28L31.2728 29.2728L30 32L28.7272 29.2728L26 28L28.7272 26.7272L30 24Z" fill="#F0BD0A"/>
</svg>
