<svg width="46" height="52" viewBox="0 0 46 52" fill="none" xmlns="http://www.w3.org/2000/svg">
    <path fill-rule="evenodd" clip-rule="evenodd" d="M37.9564 8.5934C37.9564 13.7932 34.5762 14 34.5762 14C34.5762 14 30.4239 6 19.5 0.5C19.5 4.46344 16.1209 7.72821 12.3389 11.3823L12.3389 11.3823C9.24416 14.3723 5.87965 17.6229 3.876 21.7303C3.23157 20.9408 2.69643 19.6623 2.69643 17.5934C-0.362469 25.1199 1.3059 32.7132 3.10329 36.9977C2.26034 36.7029 1.2926 36.0948 0.244873 34.9618C3.63403 43.9587 11.9469 48.5298 15.7916 49.7418C16.4172 49.8155 16.9983 49.8167 17.5351 49.7544C18.1608 49.9037 18.7931 50.0258 19.4296 50.1204C20.1126 50.5567 20.949 50.8809 21.9513 51.0572C25.982 51.0015 35.258 49.0124 41.0899 41.3692C40.6635 41.6207 40.2605 41.8229 39.8803 41.9828C42.5629 38.4049 45.1458 33.1951 45.1496 26.9774C44.5338 28.49 43.7948 29.4207 43.0709 29.9858C43.0744 29.802 43.0762 29.617 43.0762 29.4307C43.0762 23.2862 42.5535 16.0709 37.9564 8.5934Z" fill="#C25AE7"/>
    <ellipse cx="22.5762" cy="40" rx="14" ry="11" fill="#C25AE7"/>
    <mask id="path-3-inside-1_463_7795" fill="white">
        <path d="M42.5762 30C42.5762 24.6957 40.469 19.6086 36.7183 15.8579C32.9676 12.1071 27.8805 10 22.5762 10C17.2718 10 12.1848 12.1071 8.43404 15.8579C4.68331 19.6086 2.57617 24.6957 2.57617 30L22.5762 30H42.5762Z"/>
    </mask>
    <path d="M42.5762 30C42.5762 24.6957 40.469 19.6086 36.7183 15.8579C32.9676 12.1071 27.8805 10 22.5762 10C17.2718 10 12.1848 12.1071 8.43404 15.8579C4.68331 19.6086 2.57617 24.6957 2.57617 30L22.5762 30H42.5762Z" fill="#C25AE7" stroke="#3C3C3C" stroke-width="4" mask="url(#path-3-inside-1_463_7795)"/>
    <mask id="path-4-inside-2_463_7795" fill="white">
        <path d="M42.5762 30C42.5762 35.3043 40.469 40.3914 36.7183 44.1421C32.9676 47.8929 27.8805 50 22.5762 50C17.2718 50 12.1848 47.8929 8.43404 44.1421C4.68331 40.3914 2.57617 35.3043 2.57617 30L22.5762 30H42.5762Z"/>
    </mask>
    <path d="M42.5762 30C42.5762 35.3043 40.469 40.3914 36.7183 44.1421C32.9676 47.8929 27.8805 50 22.5762 50C17.2718 50 12.1848 47.8929 8.43404 44.1421C4.68331 40.3914 2.57617 35.3043 2.57617 30L22.5762 30H42.5762Z" fill="white" stroke="#3C3C3C" stroke-width="4" mask="url(#path-4-inside-2_463_7795)"/>
    <circle cx="22.5762" cy="30" r="5.0625" fill="white" stroke="#3C3C3C" stroke-width="1.875"/>
</svg>
